<svg xmlns="http://www.w3.org/2000/svg" viewBox="0 0 1020.03 499.58" fill='whitesmoke'>
    <polygon class="cls-1" points="0 498.58 0 456.77 19.36 248 42.58 154.06 10.84 0 71.23 0 85.94 92.13 140.9 0 202.84 0 101.42 157.94 82.84 254.71 0 498.58"></polygon>
    <polygon class="cls-1" points="347.61 249.29 190.45 249.29 227.61 0 353.03 0 353.03 50.32 271.74 48.77 271.74 89.81 346.84 89.81 346.84 144 262.45 144 262.45 192 346.84 192 347.61 249.29"></polygon>
    <polygon class="cls-1" points="509.68 249.29 372.39 249.29 390.97 0 514.07 0 514.07 50.32 439.74 50.32 439.74 89.03 514.07 89.81 514.07 144 435.87 144 435.87 191.23 514.07 191.23 514.07 249.29 509.68 249.29"></polygon>
    <path class="cls-1" d="M1791.23,48.45h146.32V95.68l-73.16,144.77h81.67v57.29H1791.23V252.06s72.38-148.64,77.42-151.74S1856.26,98,1856.26,98h-65Z" transform="translate(-1253.16 -48.45)"></path>
    <polygon class="cls-1" points="717.68 0 717.68 252.39 856.26 252.39 852.26 192.77 780.39 192.77 776.52 0 717.68 0"></polygon>
    <polygon class="cls-1" points="864.78 0.08 987.52 1.42 994.48 50.97 920.48 50.97 923.42 91.23 997.58 91.23 1003.55 145.42 929.23 145.42 932.71 192.65 1011.52 192.65 1020.03 253.81 986.55 253.81 1005.9 448.16 1006.78 499.58 921.52 250.71 883.58 250.71 864.78 0.08"></polygon>
</svg>