<?xml version="1.0" encoding="UTF-8" standalone="no"?>
<!-- Created with Inkscape (http://www.inkscape.org/) -->

<svg
   width="150mm"
   height="150mm"
   viewBox="0 0 150 150"
   version="1.1"
   id="svg1"
   xml:space="preserve"
   inkscape:version="1.4 (86a8ad7, 2024-10-11)"
   sodipodi:docname="yeezle_favicon.svg"
   xmlns:inkscape="http://www.inkscape.org/namespaces/inkscape"
   xmlns:sodipodi="http://sodipodi.sourceforge.net/DTD/sodipodi-0.dtd"
   xmlns="http://www.w3.org/2000/svg"
   xmlns:svg="http://www.w3.org/2000/svg"><sodipodi:namedview
     id="namedview1"
     pagecolor="#ffffff"
     bordercolor="#000000"
     borderopacity="0.25"
     inkscape:showpageshadow="2"
     inkscape:pageopacity="0.0"
     inkscape:pagecheckerboard="0"
     inkscape:deskcolor="#d1d1d1"
     inkscape:document-units="mm"
     inkscape:zoom="0.72604516"
     inkscape:cx="166.6563"
     inkscape:cy="259.62572"
     inkscape:window-width="1920"
     inkscape:window-height="1017"
     inkscape:window-x="-8"
     inkscape:window-y="-8"
     inkscape:window-maximized="1"
     inkscape:current-layer="layer1" /><defs
     id="defs1" /><rect
     style="fill:#1d2f5d;fill-opacity:1;stroke-width:1.21242;stroke-linejoin:round;stroke-miterlimit:1"
     id="rect1"
     width="150"
     height="150"
     x="0"
     y="0" /><g
     inkscape:label="Warstwa 1"
     inkscape:groupmode="layer"
     id="layer1"
     transform="translate(-30,-73.5)"><path
       d="m 77.326475,108.17223 v 3.68603 h 0.158415 q 1.346528,0 1.742565,1.02389 0.237623,0.61434 0.237623,2.66213 v 1.12628 q -0.07921,1.22867 -4.910866,22.21852 l -1.663358,7.47443 -0.237623,-0.92151 q -6.098979,-25.90453 -6.098979,-28.97622 0,-4.40275 2.772263,-4.50514 v -3.78841 H 54.910746 v 3.78841 q 1.504943,0.61434 2.772264,3.68603 0.712867,1.843 2.138603,7.37204 l 0.31683,1.02389 q 0,0 6.811846,32.25269 v 20.4779 q 0,9.01027 -4.197998,9.31743 v 3.9932 h 15.762297 v -3.9932 q -2.297019,-0.20477 -3.247508,-2.25256 -0.950491,-2.15018 -0.950491,-7.06487 v -20.4779 q -0.237623,-2.8669 7.445507,-34.0957 0,0 0.712868,-2.96929 0.871283,-3.58363 1.504942,-4.9147 1.029698,-2.15018 3.009887,-2.35496 v -3.78841 z m 15.999932,0 q 0,0.20478 -0.07918,9.41983 0,9.21506 0,9.52223 h 2.297018 q 0.633657,-8.19117 2.138602,-10.64851 1.504946,-2.55973 5.623743,-2.55973 h 4.11878 l -15.683089,71.87741 v 4.30036 h 24.950379 q 0.23762,-9.62462 0.55445,-19.76117 h -2.53464 q -1.18811,9.11266 -2.53464,11.36523 -1.34653,2.25257 -5.06928,2.25257 h -6.41582 l 15.52468,-71.0583 q 0.15841,-1.84301 0.39604,-4.70992 z m 51.326483,0 v 3.68603 h 0.15842 q 1.34653,0 1.74257,1.02389 0.23762,0.61434 0.23762,2.66213 v 1.12628 q -0.0792,1.22867 -4.91087,22.21852 l -1.66336,7.47443 -0.23762,-0.92151 q -6.09898,-25.90453 -6.09898,-28.97622 0,-4.40275 2.77226,-4.50514 v -3.78841 h -14.41576 v 3.78841 q 1.50494,0.61434 2.77226,3.68603 0.71287,1.843 2.1386,7.37204 l 0.31684,1.02389 q 0,0 6.81184,32.25269 v 20.4779 q 0,9.01027 -4.198,9.31743 v 3.9932 h 15.7623 v -3.9932 q -2.29702,-0.20477 -3.24751,-2.25256 -0.95049,-2.15018 -0.95049,-7.06487 v -20.4779 q -0.23762,-2.8669 7.4455,-34.0957 0,0 0.71288,-2.96929 0.87128,-3.58363 1.50493,-4.9147 1.02971,-2.15018 3.00989,-2.35496 v -3.78841 z"
       id="text1"
       style="font-size:98.6393px;line-height:0;font-family:'MLB Brewers';-inkscape-font-specification:'MLB Brewers, Normal';text-align:center;text-anchor:middle;fill:#ffffff;stroke-width:1.0211;stroke-linejoin:round;stroke-miterlimit:1"
       aria-label="YZY" /></g></svg>
