<svg
   viewBox="0 0 52.076145 36.384304"
   version="1.1"
   xmlns="http://www.w3.org/2000/svg"
   xmlns:svg="http://www.w3.org/2000/svg">
  <defs id="defs4" />
  <g transform="translate(-81.666936,-110.03312)">
    <path
       d="M 105.36225 110.03507 C 99.74298 110.06747 93.189819 110.84557 88.768499 113.35734 L 88.772405 113.36906 C 85.53372 115.21137 84.768074 120.32031 83.356389 127.54679 C 82.625026 131.29067 81.059613 137.34646 81.916936 140.03507 C 83.525162 145.07857 88.197861 146.52591 91.981389 146.41203 C 94.873736 146.32493 97.421818 143.35712 98.916936 138.84757 L 107.70405 138.84757 L 107.70405 110.06242 C 106.9484 110.03942 106.165 110.03037 105.36225 110.03507 z M 110.0478 110.03507 C 109.24505 110.03037 108.46165 110.03942 107.706 110.06242 L 107.706 138.84757 L 116.49311 138.84757 C 117.98823 143.35712 120.5363 146.32493 123.42865 146.41203 C 127.21218 146.52591 131.88489 145.07857 133.49311 140.03507 C 134.35043 137.34646 132.78501 131.29067 132.05365 127.54679 C 130.64196 120.32031 129.87632 115.21137 126.63764 113.36906 L 126.64155 113.35734 C 122.22022 110.84557 115.66706 110.06747 110.0478 110.03507 z M 121.94819 119.32023 A 3.040606 3.040606 0 0 1 124.9892 122.36124 A 3.040606 3.040606 0 0 1 121.94819 125.40031 A 3.040606 3.040606 0 0 1 118.90912 122.36124 A 3.040606 3.040606 0 0 1 121.94819 119.32023 z M 96.622014 119.78312 L 96.93842 119.78312 C 98.04642 119.78312 98.93842 120.67512 98.93842 121.78312 L 98.93842 124.32609 L 101.47944 124.32609 C 102.58744 124.32609 103.47944 125.21809 103.47944 126.32609 L 103.47944 126.64054 C 103.47944 127.74854 102.58744 128.64054 101.47944 128.64054 L 98.93842 128.64054 L 98.93842 131.18351 C 98.93842 132.29151 98.046421 133.18351 96.93842 133.18351 L 96.622014 133.18351 C 95.514014 133.18351 94.622014 132.29151 94.622014 131.18351 L 94.622014 128.64054 L 92.080999 128.64054 C 90.972999 128.64054 90.080999 127.74854 90.080999 126.64054 L 90.080999 126.32609 C 90.080999 125.21809 90.972999 124.32609 92.080999 124.32609 L 94.622014 124.32609 L 94.622014 121.78312 C 94.622014 120.67512 95.514013 119.78312 96.622014 119.78312 z M 116.42475 127.40031 A 3.040606 3.040606 0 0 1 119.46576 130.43937 A 3.040606 3.040606 0 0 1 116.42475 133.48039 A 3.040606 3.040606 0 0 1 113.38373 130.43937 A 3.040606 3.040606 0 0 1 116.42475 127.40031 z " />
  </g>
</svg>